<?xml version="1.0" encoding="UTF-8" standalone="no"?>
<!-- Created with Inkscape (http://www.inkscape.org/) -->

<svg
   xmlns:dc="http://purl.org/dc/elements/1.1/"
   xmlns:cc="http://creativecommons.org/ns#"
   xmlns:rdf="http://www.w3.org/1999/02/22-rdf-syntax-ns#"
   xmlns:svg="http://www.w3.org/2000/svg"
   xmlns="http://www.w3.org/2000/svg"
   xmlns:sodipodi="http://sodipodi.sourceforge.net/DTD/sodipodi-0.dtd"
   xmlns:inkscape="http://www.inkscape.org/namespaces/inkscape"
   width="1052.3622"
   height="744.09448"
   id="svg2"
   version="1.1"
   inkscape:version="0.48.2 r9819"
   sodipodi:docname="New document 1">
  <defs
     id="defs4">
    <inkscape:perspective
       sodipodi:type="inkscape:persp3d"
       inkscape:vp_x="0 : 372.04724 : 1"
       inkscape:vp_y="0 : 1000 : 0"
       inkscape:vp_z="1052.3622 : 372.04724 : 1"
       inkscape:persp3d-origin="526.18109 : 248.03149 : 1"
       id="perspective3050" />
  </defs>
  <sodipodi:namedview
     id="base"
     pagecolor="#ffffff"
     bordercolor="#666666"
     borderopacity="1.0"
     inkscape:pageopacity="0.0"
     inkscape:pageshadow="2"
     inkscape:zoom="1"
     inkscape:cx="549.52183"
     inkscape:cy="451.69576"
     inkscape:document-units="px"
     inkscape:current-layer="layer1"
     showgrid="false"
     inkscape:window-width="1366"
     inkscape:window-height="720"
     inkscape:window-x="0"
     inkscape:window-y="0"
     inkscape:window-maximized="1" />
  <metadata
     id="metadata7">
    <rdf:RDF>
      <cc:Work
         rdf:about="">
        <dc:format>image/svg+xml</dc:format>
        <dc:type
           rdf:resource="http://purl.org/dc/dcmitype/StillImage" />
        <dc:title></dc:title>
      </cc:Work>
    </rdf:RDF>
  </metadata>
  <g
     inkscape:label="Layer 1"
     inkscape:groupmode="layer"
     id="layer1"
     transform="translate(0,-308.2677)">
    <rect
       style="opacity:1;fill:#ffff00;stroke:#000000;stroke-opacity:0;fill-opacity:1"
       id="rect3884"
       width="174.5"
       height="52"
       x="269"
       y="473.36218" />
    <flowRoot
       xml:space="preserve"
       id="flowRoot2985"
       style="fill:black;stroke:none;stroke-opacity:1;stroke-width:1px;stroke-linejoin:miter;stroke-linecap:butt;fill-opacity:1;font-family:Bangla MN;font-style:normal;font-weight:normal;font-size:40px;line-height:125%;letter-spacing:0px;word-spacing:0px;-inkscape-font-specification:Bangla MN;font-stretch:normal;font-variant:normal"><flowRegion
         id="flowRegion2987"><rect
           id="rect2989"
           width="97.14286"
           height="137.14285"
           x="157.14285"
           y="126.95162" /></flowRegion><flowPara
         id="flowPara2991"></flowPara></flowRoot>    <text
       xml:space="preserve"
       style="font-size:141.07656860000000165px;font-style:italic;font-variant:normal;font-weight:normal;font-stretch:normal;line-height:125%;letter-spacing:0px;word-spacing:0px;fill:#000000;fill-opacity:1;stroke:none;font-family:Bangla MN;-inkscape-font-specification:Bangla MN Italic"
       x="238.46039"
       y="504.49225"
       id="text2993"
       sodipodi:linespacing="125%"><tspan
         sodipodi:role="line"
         id="tspan2995"
         x="238.46039"
         y="504.49225">auth</tspan></text>
    <text
       xml:space="preserve"
       style="font-size:40px;font-style:normal;font-variant:normal;font-weight:normal;font-stretch:normal;line-height:125%;letter-spacing:0px;word-spacing:0px;fill:#000000;fill-opacity:1;stroke:none;font-family:Bangla MN;-inkscape-font-specification:Bangla MN"
       x="818.22418"
       y="163.64484"
       id="text2997"
       sodipodi:linespacing="125%"
       transform="translate(0,308.2677)"><tspan
         sodipodi:role="line"
         x="818.22418"
         y="163.64484"
         id="tspan3003" /></text>
    <text
       xml:space="preserve"
       style="font-size:67.76559448px;font-style:normal;font-variant:normal;font-weight:normal;font-stretch:normal;line-height:125%;letter-spacing:0px;word-spacing:0px;fill:#000000;fill-opacity:1;stroke:none;font-family:PilGi;-inkscape-font-specification:PilGi"
       x="341.0419"
       y="536.77777"
       id="text3009"
       sodipodi:linespacing="125%"><tspan
         sodipodi:role="line"
         id="tspan3011"
         x="341.0419"
         y="536.77777">cream</tspan></text>
    <path
       style="fill:none;stroke:#000000;stroke-width:0.89968437px;stroke-linecap:butt;stroke-linejoin:miter;stroke-opacity:1"
       d="m 506.0766,524.95393 1.33659,-1.33049 0,0 -1.33659,6.65251 z"
       id="path3019"
       inkscape:connector-curvature="0" />
    <path
       style="fill:#ffffff"
       id="path3023"
       d="m 506.30767,222.18462 c 0.0565,-0.16194 0.15282,-0.13765 0.34797,-0.21646 -0.0636,0.11452 -0.25457,0.23814 -0.35161,0.22758 -0.0532,-0.0382 -0.0168,-0.11794 -0.002,-0.16771 0.0169,-0.0502 0.0349,-0.0999 0.0542,-0.14919 0,0 0.28677,-0.1323 0.28677,-0.1323 l 0,0 c -0.0207,0.048 -0.0402,0.0964 -0.0554,0.14642 -0.0139,0.0455 -0.0132,0.0374 -0.0204,0.0802 -0.002,0.0109 0.001,0.0234 -0.004,0.0329 -0.001,0.002 -0.008,-0.009 5.9e-4,-0.006 0.0886,-0.0665 0.0226,-0.0165 -0.25564,0.14815 -0.005,0.003 0.0112,-0.004 0.0159,-0.007 0.01,-0.007 0.0179,-0.0171 0.027,-0.0254 0.004,-0.003 0.007,-0.007 0.0101,-0.0112 0.57391,-0.26885 0.32727,-0.20243 0.25949,-0.0952 -0.0397,0.0628 0.0133,-0.0134 -0.0205,0.0344 0,0 -0.29201,0.1416 -0.29201,0.1416 z"
       inkscape:connector-curvature="0"
       transform="translate(0,308.2677)" />
    <path
       style="fill:#ffffff"
       id="path3025"
       d="m 506.00343,221.91705 c 0.0515,-0.005 0.0941,-0.036 0.13953,-0.0581 0.11631,-0.0558 0.34591,-0.19211 -0.14472,0.089 0.0332,-0.0223 0.0634,-0.0482 0.0959,-0.0713 0.0416,-0.0295 0.0839,-0.0572 0.12334,-0.0896 0.0309,-0.0272 0.0611,-0.0551 0.093,-0.0811 0.0313,-0.0223 0.0575,-0.051 0.0826,-0.08 0.022,-0.0282 0.0373,-0.0605 0.0585,-0.0892 0,0 0.29714,-0.12624 0.29714,-0.12624 l 0,0 c -0.025,0.0265 -0.0415,0.0568 -0.0598,0.0882 -0.0217,0.0324 -0.0495,0.0608 -0.0775,0.0875 -0.0344,0.0238 -0.0651,0.0519 -0.096,0.0801 -0.0261,0.0233 -0.0531,0.0484 -0.0828,0.0671 -0.007,0.004 -0.0146,0.006 -0.0213,0.0106 -0.006,0.004 -0.0113,0.009 -0.017,0.0138 -0.0159,0.0117 -0.0357,0.0217 -0.0502,0.0349 -0.005,0.005 -0.008,0.0115 -0.0131,0.0159 -0.01,0.008 -0.025,0.009 -0.0327,0.0204 -0.1347,0.0797 -0.26533,0.16373 -0.40651,0.23059 -0.0473,0.0233 -0.0936,0.0471 -0.14696,0.0533 0,0 0.25873,-0.1959 0.25873,-0.1959 z"
       inkscape:connector-curvature="0"
       transform="translate(0,308.2677)" />
    <path
       style="fill:#ffffff"
       id="path3027"
       d="m 505.74249,222.02604 c 0.0536,-0.039 0.10973,-0.0744 0.16331,-0.11336 0.04,-0.0322 0.0799,-0.0643 0.1218,-0.094 0.0344,-0.0205 0.0675,-0.0423 0.0961,-0.0704 0.10085,-0.11005 0.24235,-0.16768 0.37292,-0.23783 -0.49796,0.28461 -0.31491,0.20618 -0.243,0.13297 0.0246,-0.025 0.046,-0.0526 0.0711,-0.0772 0.0356,-0.028 0.0687,-0.0591 0.10405,-0.0875 0.0307,-0.0237 0.0656,-0.041 0.097,-0.0637 0.0249,-0.0135 0.26573,-0.26948 0.30542,-0.12884 0.006,0.0218 -0.0226,0.0564 -0.0332,0.0722 -0.0302,0.0448 -0.0594,0.09 -0.0928,0.13246 -0.0373,0.0467 -0.0752,0.0921 -0.11782,0.13402 -0.0559,0.0488 -0.10766,0.1016 -0.15975,0.15438 -0.0505,0.057 -0.0976,0.11704 -0.14491,0.17669 -0.0129,0.0163 -0.0234,0.0292 -0.0354,0.0456 -0.002,0.002 -0.003,0.0103 -0.005,0.008 -0.004,-0.007 -0.007,-0.0157 -0.005,-0.0234 0.002,-0.007 0.0219,-0.0189 0.0155,-0.0154 -0.0821,0.0442 -0.16225,0.0921 -0.24337,0.1381 0.0865,-0.0556 0.16451,-0.12332 0.2428,-0.18966 0.0317,-0.028 0.0642,-0.0551 0.0962,-0.0827 0.01,-0.008 0.0174,-0.0207 0.0295,-0.0255 0.0939,-0.0365 0.18867,-0.0704 0.283,-0.1056 -0.0885,0.0809 -0.16871,0.16868 -0.24578,0.26032 -0.0644,0.0823 -0.14359,0.1502 -0.22095,0.21962 -0.0912,0.0756 -0.30131,0.30126 -0.34851,0.17246 -0.008,-0.0212 2.4e-4,-0.0302 0.008,-0.0487 0.0348,-0.0677 0.0917,-0.11936 0.14296,-0.1743 0.0467,-0.0489 0.0917,-0.0999 0.14135,-0.14594 0.0377,-0.0305 0.0763,-0.0596 0.115,-0.0888 0.031,-0.0253 0.0616,-0.051 0.0927,-0.0761 0.0223,-0.0182 0.0463,-0.0349 0.0674,-0.0546 -0.0206,-0.005 -0.0462,-0.005 -0.0683,-0.006 -0.0405,-0.003 -0.0795,-0.001 -0.11905,0.008 -0.27083,0.1548 0.85799,-0.48734 -0.0806,0.0458 -0.097,0.0545 -0.2223,0.12461 0.23291,-0.13432 0.004,-0.002 -0.008,0.005 -0.0118,0.008 -0.01,0.007 -0.0194,0.0145 -0.0291,0.0217 -0.0299,0.0254 -0.0493,0.0599 -0.076,0.0883 -0.0333,0.0358 -0.0688,0.0691 -0.1073,0.0992 0,0 -0.29921,0.11881 -0.29921,0.11881 l 0,0 c 0.0393,-0.0276 0.0776,-0.0577 0.10838,-0.0948 0.0296,-0.0268 0.0516,-0.0576 0.0748,-0.0896 0.0966,-0.10194 0.23685,-0.15434 0.36095,-0.21839 -0.0876,0.0509 -0.17494,0.10226 -0.26275,0.1528 -0.004,0.002 0.008,-0.006 0.0118,-0.008 0.0477,-0.0278 0.21885,-0.15686 0.33553,-0.18332 0.0412,-0.005 0.0825,-0.005 0.12387,-0.001 0.0403,0.004 0.081,0.007 0.0975,0.0499 0.004,0.0435 -0.03,0.053 -0.059,0.0788 -0.0324,0.0239 -0.0625,0.0497 -0.0931,0.0759 -0.0382,0.0312 -0.079,0.059 -0.11803,0.089 -0.0546,0.0408 -0.0962,0.0974 -0.14623,0.14353 -0.0486,0.0531 -0.10288,0.10228 -0.14114,0.1636 -0.0246,0.0418 -0.0192,0.002 -0.0283,0.007 -0.49293,0.25736 -0.30951,0.19547 -0.21871,0.12205 0.0774,-0.071 0.16193,-0.13472 0.22741,-0.21788 0.0759,-0.0886 0.14937,-0.17884 0.23641,-0.25711 0.46787,-0.20984 0.33862,-0.17582 0.17987,-0.0294 -0.0776,0.0662 -0.15555,0.13223 -0.23722,0.19335 -0.10232,0.0585 -0.20283,0.12026 -0.30694,0.17548 -0.0248,0.0131 -0.0422,-3e-4 -0.0521,-0.0237 -0.009,-0.0204 0.037,-0.0518 0.0428,-0.0647 0.0465,-0.0612 0.0958,-0.12007 0.14344,-0.18028 0.0521,-0.052 0.10047,-0.10734 0.15745,-0.15412 0.0429,-0.0408 0.083,-0.0829 0.11863,-0.13021 0.0343,-0.0408 0.0643,-0.0842 0.0929,-0.12904 0.003,-0.005 0.0353,-0.0542 0.0374,-0.0528 0.007,0.004 0.008,0.0213 0.0151,0.018 0.0941,-0.0449 0.18121,-0.10318 0.27181,-0.15477 -0.0336,0.0183 -0.0628,0.045 -0.0983,0.0607 -0.0366,0.0276 -0.069,0.0597 -0.10714,0.0854 -0.1486,0.13416 -0.0659,0.13865 -0.37669,0.26891 -0.10216,0.0565 -0.0656,0.0365 0.24139,-0.14164 0.006,-0.003 -0.0117,0.007 -0.0174,0.0112 -0.015,0.01 -0.022,0.0142 -0.0343,0.0273 -0.005,0.005 -0.008,0.0105 -0.0125,0.0157 -0.0301,0.0271 -0.0561,0.0584 -0.0938,0.0763 -0.046,0.0254 -0.0859,0.0602 -0.12662,0.093 -0.0509,0.0397 -0.10542,0.0735 -0.15778,0.11124 0,0 -0.30162,0.11995 -0.30162,0.11995 z"
       inkscape:connector-curvature="0"
       transform="translate(0,308.2677)" />
    <path
       style="fill:#ffffff"
       id="path3029"
       d="m 505.82991,222.22273 c 0.0291,-0.0177 0.0484,-0.0391 0.0587,-0.0713 7.7e-4,-0.004 0.002,-0.008 0.002,-0.0127 0,0 0.29053,-0.14415 0.29053,-0.14415 l 0,0 c -2.3e-4,0.005 -4.7e-4,0.0103 -7e-4,0.0155 -0.005,0.0362 -0.0173,0.0719 -0.0492,0.0926 0,0 -0.30162,0.11995 -0.30162,0.11995 z"
       inkscape:connector-curvature="0"
       transform="translate(0,308.2677)" />
    <path
       style="fill:#ffffff"
       id="path3031"
       d="m 506.08723,221.95264 c -0.007,0.009 -0.0143,0.0185 -0.02,0.0287 -0.003,0.007 -0.007,0.0132 -0.01,0.0199 -1.2e-4,-7.5e-4 -6.8e-4,-0.002 -3.7e-4,-0.002 6.1e-4,-0.001 0.0156,-0.003 0.0177,-0.003 0.002,-5.5e-4 0.003,-9.9e-4 0.005,-0.002 0.002,-7.9e-4 0.007,-0.004 0.006,-0.003 -0.0871,0.0508 -0.0466,0.0273 -0.0337,0.0185 0.003,-0.002 0.006,-0.004 0.009,-0.006 0.003,-0.002 0.005,-0.004 0.008,-0.006 0.004,-0.003 0.007,-0.006 0.01,-0.01 6.5e-4,-9.1e-4 0.002,-0.003 7.7e-4,-0.003 -0.002,-8.4e-4 -0.004,-8.1e-4 -0.006,-0.001 -0.006,-8.3e-4 -0.0121,-5.7e-4 -0.0175,0.002 -0.001,5.8e-4 -0.005,0.003 -0.004,0.002 0.0152,-0.009 0.0303,-0.0171 0.0455,-0.0257 -0.008,0.006 -0.0137,0.0144 -0.0177,0.0234 -0.002,0.008 -0.003,0.0167 -2.6e-4,0.0244 -0.0172,0.008 -0.0338,0.0178 -0.0515,0.0247 -0.002,6e-4 7.2e-4,-0.003 9.1e-4,-0.005 3.1e-4,-0.003 4.4e-4,-0.005 5.8e-4,-0.008 5.6e-4,-0.0106 5.7e-4,-0.0212 6.4e-4,-0.0318 5e-5,-0.0183 0.007,-0.0341 0.0204,-0.0465 0.0178,-0.01 0.0346,-0.0214 0.0533,-0.0292 0.002,-8.7e-4 0.004,0.003 0.005,0.005 0.008,0.0136 2.8e-4,0.0297 -0.005,0.0423 -0.0168,0.0279 -0.0368,0.0537 -0.056,0.0799 -0.0233,0.0334 -0.0245,0.0391 -0.0755,0.0541 -0.003,8e-4 -0.001,-0.005 -0.002,-0.008 7.9e-4,-0.021 0.006,-0.0418 0.0134,-0.0613 0.0172,-0.01 0.0331,-0.0222 0.0517,-0.0289 0.003,-0.001 0.003,0.0101 0.003,0.0192 -6.5e-4,0.0125 -0.003,0.0248 -0.005,0.0371 -0.007,0.0323 -0.0111,0.0304 -0.0597,0.043 -0.003,7.3e-4 -0.001,-0.006 -0.002,-0.009 -5.2e-4,-0.004 -6.4e-4,-0.008 -9.6e-4,-0.0114 -7.3e-4,-0.0123 -0.001,-0.0247 -0.002,-0.0371 -2.3e-4,-0.004 -0.001,-0.0177 -9.3e-4,-0.0117 0.0595,-0.0315 0.0508,-0.0402 0.0507,-0.0107 0,7.8e-4 -1.7e-4,0.009 6.3e-4,0.011 2e-4,4.3e-4 6.8e-4,-6.8e-4 0.001,-0.001 -0.0736,0.0362 -0.0548,0.0326 -0.0399,0.0166 0.008,-0.009 0.0152,-0.0181 0.0229,-0.0269 0.003,0.0197 -5.7e-4,-1.7e-4 0.0509,-0.0199 0.002,-6.6e-4 -0.003,0.002 -0.004,0.004 -4.7e-4,4.1e-4 -0.01,0.008 -0.0102,0.009 -0.0179,0.0107 -0.0361,0.0208 -0.0541,0.0312 -0.006,0.002 -0.004,0.001 -0.009,0.004 -0.001,6e-4 -0.004,0.002 -0.003,0.002 0.10485,-0.0602 0.0193,-0.0101 -0.005,-5.3e-4 -0.002,7.1e-4 -0.001,-0.004 -0.002,-0.005 0.002,-0.038 0.0114,-0.0283 0.0569,-0.0516 6.7e-4,0.002 0.002,0.004 0.002,0.006 0.002,0.008 0.002,0.0228 7.8e-4,0.0305 -0.0175,0.01 -0.034,0.0214 -0.0525,0.0291 -0.002,9.1e-4 -0.003,-0.003 -0.005,-0.005 -0.007,-0.0112 -0.0105,-0.0251 -0.0138,-0.0379 -0.007,-0.0322 -0.0145,-0.018 0.0464,-0.0419 0.002,-6.3e-4 -1.3e-4,0.003 9e-5,0.005 3.4e-4,0.003 0.001,0.005 0.002,0.008 0.003,0.009 0.006,0.0174 0.0115,0.0251 0.004,0.005 0.008,0.01 0.0115,0.0154 -0.006,0.0495 -0.0599,0.0291 -0.0874,0.0299 -0.003,9e-5 -0.006,6.7e-4 -0.009,0.001 -0.0215,0.008 -0.0178,0.007 0.0359,-0.0213 0.002,-8.8e-4 -0.003,0.002 -0.004,0.004 -0.003,0.003 -0.005,0.006 -0.005,0.01 -6.3e-4,0.004 0.006,-0.004 0.006,-0.004 -0.0388,0.021 -0.06,0.0366 -0.0412,0.023 0.001,-9.7e-4 0.002,-0.002 0.003,-0.003 0.002,-0.001 0.009,-0.011 0.009,-0.011 0.0175,-0.0105 0.0354,-0.0202 0.0532,-0.0303 0.0152,0.004 0.0296,0.0113 0.0427,0.0199 0,0 -0.0479,0.0307 -0.0479,0.0307 l 0,0 c -0.01,-0.006 -0.0242,-0.0147 -0.0358,-0.0158 -0.002,-1.4e-4 -0.003,3.6e-4 -0.005,5.4e-4 0.0152,-0.009 0.0303,-0.0185 0.0455,-0.0277 -7.6e-4,8.2e-4 -0.002,0.002 -0.002,0.002 -0.003,0.004 -0.005,0.01 -0.01,0.0129 -0.0195,0.0155 -0.009,0.007 -0.057,0.0345 -0.005,0.003 -0.0106,-0.002 -0.0122,-0.007 -2.4e-4,-0.006 5.8e-4,-0.009 0.004,-0.0138 0.001,-0.002 0.002,-0.004 0.004,-0.005 0.0509,-0.0311 0.035,-0.0271 0.0626,-0.0326 0.0103,-3.1e-4 0.0202,7.3e-4 0.0305,0.001 0.003,1.7e-4 0.0122,-0.002 0.01,2.6e-4 -0.0382,0.0311 -0.0598,0.02 -0.0393,0.0291 -0.002,-0.006 -0.007,-0.0103 -0.01,-0.0155 -0.003,-0.004 -0.007,-0.0127 -0.009,-0.0171 -0.001,-0.003 -0.002,-0.006 -0.004,-0.009 -8.3e-4,-0.003 -0.002,-0.005 -0.002,-0.008 -5.4e-4,-0.002 -0.003,-0.005 -0.001,-0.006 0.0574,-0.04 0.0483,-0.0438 0.0549,-0.0108 0.002,0.01 0.005,0.0194 0.009,0.0283 0.001,0.002 0.002,0.004 0.004,0.006 6.4e-4,7.2e-4 0.003,7.8e-4 0.003,0.001 -0.0151,0.0104 -0.0312,0.0193 -0.0468,0.029 7.2e-4,-7.5e-4 0.002,-0.001 0.002,-0.002 0.002,-0.007 -0.001,-0.0185 -0.001,-0.026 0.0166,-0.009 0.0332,-0.0187 0.0498,-0.028 6.9e-4,-3.9e-4 -0.002,4.5e-4 -0.002,0.001 -9.1e-4,0.001 -0.001,0.003 -0.002,0.004 -0.002,0.005 -0.002,0.01 -0.003,0.0147 -0.0186,-0.004 -0.0638,0.0405 -0.0502,0.0271 0.0156,-0.0154 0.0423,-0.0253 0.0638,-0.0354 -0.0144,0.009 -0.0287,0.0175 -0.0433,0.0258 -0.002,0.001 0.003,-0.003 0.005,-0.004 0.002,-0.001 0.003,-0.003 0.005,-0.004 0.001,-0.001 0.002,-0.003 0.004,-0.004 0.056,-0.0279 0.0536,-0.0462 0.0558,-0.0239 -0.009,0.008 -0.0166,0.0173 -0.024,0.027 -0.0177,0.0231 -0.008,0.008 -0.0609,0.0365 -0.001,-0.001 -0.003,-0.002 -0.003,-0.004 -0.001,-0.003 -3.8e-4,-0.0149 -5e-4,-0.0188 -6e-5,-0.002 -0.002,-0.005 -2.8e-4,-0.006 0.0161,-0.0118 0.0341,-0.0209 0.0511,-0.0314 6.2e-4,0.005 -1.9e-4,0.0107 -1.7e-4,0.0154 5e-5,0.0122 4.8e-4,0.0245 0.002,0.0367 4.8e-4,0.003 8.3e-4,0.007 0.001,0.0105 3.5e-4,0.002 0.003,0.005 0.001,0.006 -0.0155,0.0111 -0.0331,0.0187 -0.0495,0.0284 -0.001,6.2e-4 0.003,-2e-4 0.003,-0.001 0.003,-0.003 0.005,-0.0132 0.006,-0.0165 0.003,-0.0119 0.005,-0.0234 0.005,-0.0357 7e-5,-0.003 -3.2e-4,-0.006 -2.4e-4,-0.009 2e-5,-6.5e-4 0,-0.002 5.5e-4,-0.002 0.0155,-0.01 0.0315,-0.0192 0.0473,-0.0288 -0.0107,0.0169 -0.0138,0.0383 -0.0151,0.0579 0.002,0.0224 0.001,0.003 -0.0481,0.0317 -0.001,8.3e-4 0.003,-0.001 0.004,-0.002 0.008,-0.007 0.0133,-0.0185 0.0206,-0.0268 0.0192,-0.0258 0.0388,-0.0515 0.0561,-0.0787 0.004,-0.009 0.007,-0.0126 0.009,-0.0221 4e-4,-0.003 3.7e-4,-0.005 -1e-5,-0.008 -2.4e-4,-0.002 -8.9e-4,-0.003 -0.002,-0.005 -2.7e-4,-4.3e-4 -0.002,-1e-4 -0.001,-3.6e-4 0.015,-0.009 0.0303,-0.018 0.0454,-0.027 -0.015,0.009 -0.0227,0.025 -0.0237,0.0423 -8e-5,0.0132 -3.3e-4,0.0264 1.6e-4,0.0397 7e-5,0.002 0.002,0.004 3.4e-4,0.005 -0.0166,0.0106 -0.0348,0.0185 -0.0522,0.0277 -9.9e-4,-0.009 -0.003,-0.0185 -7.9e-4,-0.0275 0.003,-0.01 0.01,-0.0186 0.0166,-0.0265 0.0261,-0.0153 0.0465,-0.0385 0.0765,-0.0319 0.0174,0.006 0.012,0.0159 4.6e-4,0.0258 -0.027,0.0225 -0.0573,0.0449 -0.0914,0.0539 -0.005,6.5e-4 -0.0168,0.003 -0.0207,5e-4 -0.001,-9.2e-4 -0.002,-0.002 -0.003,-0.004 -1.7e-4,-0.008 0.007,-0.0147 0.01,-0.0223 0.005,-0.0105 0.0121,-0.02 0.0189,-0.0294 0,0 0.0532,-0.0227 0.0532,-0.0227 z"
       inkscape:connector-curvature="0"
       transform="translate(0,308.2677)" />
    <path
       style="fill:#ffffff"
       id="path3033"
       d="m 505.86868,222.14438 c 8e-4,-0.0131 4.8e-4,-0.0262 4.8e-4,-0.0393 -3.1e-4,-0.0406 -0.005,-0.0222 0.0503,-0.057 0.007,0.008 0.0106,0.0175 0.0136,0.0273 6.4e-4,0.001 8.7e-4,0.002 0.002,0.003 0.003,0.001 0.0131,-4.2e-4 0.0137,-5.3e-4 0.0154,-0.003 0.0296,-0.008 0.0441,-0.014 0.0354,-0.0135 0.0686,-0.0317 0.10123,-0.0506 -0.0951,0.0546 0.0162,-0.009 0.0209,-0.0121 0.014,-0.008 -0.0284,0.0163 -0.0427,0.0242 -8.1e-4,4.5e-4 0.001,-0.002 0.002,-0.002 3.7e-4,-1e-4 7.4e-4,7.6e-4 4.8e-4,0.001 -5.6e-4,6.2e-4 -0.002,6.6e-4 -0.002,9.8e-4 -0.0183,-0.002 -0.0367,4.9e-4 -0.055,0.001 -0.0147,0.001 -0.0302,-6.7e-4 -0.0431,0.008 0.0781,-0.0442 0.0544,-0.0354 0.041,-0.0216 -0.007,0.007 -0.0128,0.0148 -0.0193,0.0221 -0.009,0.01 -0.0168,0.02 -0.0255,0.0298 -0.0173,0.01 -0.0337,0.0213 -0.0521,0.0289 -0.002,0.001 -0.004,-0.008 -0.003,-0.0133 0.002,-0.013 0.0106,-0.0251 0.017,-0.0363 0.0181,-0.0319 0.041,-0.0604 0.0666,-0.0865 0.0235,-0.0208 0.0513,-0.0341 0.079,-0.0493 0.002,-0.001 0.0129,-0.005 0.0163,-0.005 0.002,1.1e-4 0.004,0.002 0.005,0.002 8.4e-4,0.003 0.002,0.005 0.003,0.008 5.6e-4,0.0171 -0.0226,0.0424 -0.0333,0.0543 -0.0282,0.0299 -0.0654,0.0477 -0.10113,0.0672 -0.012,0.006 -0.0241,0.0111 -0.0375,0.013 -0.0114,6.4e-4 -0.0236,0.004 -0.0336,-0.003 -5.1e-4,-0.002 -0.002,-0.004 -0.002,-0.005 0.001,-0.009 0.0201,-0.0194 0.0274,-0.0239 0.002,0.003 0.003,-0.004 0.005,-0.004 5.3e-4,2e-4 6.5e-4,0.002 1.1e-4,0.002 -0.001,3.8e-4 -0.002,-2.9e-4 -0.004,-5.5e-4 -0.0191,-0.004 0.008,0.001 -0.0147,-0.003 -0.0159,-0.002 -0.0319,-0.005 -0.0475,2.7e-4 -0.0233,0.0126 0.0259,-0.0152 0.0392,-0.0223 0.002,-0.001 -0.003,0.002 -0.005,0.004 -0.004,0.003 -0.007,0.007 -0.009,0.0109 -0.007,-0.0185 4.3e-4,-1.6e-4 -0.0503,0.0213 -0.002,9.6e-4 0.004,-0.003 0.006,-0.004 0.009,-0.006 0.0183,-0.0129 0.0274,-0.0193 0.0117,-0.009 0.024,-0.0162 0.0351,-0.0255 0.005,-0.005 0.0118,-0.006 0.001,-0.006 -0.005,7.5e-4 -0.0102,0.002 -0.0148,0.005 -0.002,9.9e-4 -0.007,0.004 -0.005,0.003 0.0407,-0.0228 0.057,-0.0341 0.037,-0.0205 -0.01,0.007 -0.0168,0.0161 -0.0237,0.0255 -7e-4,0.001 -0.001,0.002 -0.002,0.003 -5.5e-4,9.8e-4 -0.001,0.002 -0.002,0.003 -4.1e-4,8.5e-4 -3.8e-4,0.002 -0.001,0.003 -0.0194,0.012 -0.0522,0.0447 -0.0539,0.0234 -1.7e-4,-0.002 0.001,-0.004 0.002,-0.006 0.01,-0.0136 0.0228,-0.0246 0.0361,-0.0347 -0.0226,-0.0689 0.0598,-0.041 0.0561,-0.0198 -8.1e-4,0.005 -0.006,0.009 -0.009,0.0125 -0.004,0.007 -0.009,0.013 -0.0119,0.0203 -0.003,0.006 -0.004,0.0125 -0.006,0.0191 -0.001,0.01 -0.004,0.0185 -0.009,0.0267 -0.0147,0.0169 -0.0399,0.0257 -0.0575,0.0352 -0.002,0.001 -0.009,8.3e-4 -0.0118,9.3e-4 -0.0103,-8e-4 -0.0143,-0.005 -0.0194,-0.0136 -0.005,-0.008 -0.007,-0.0169 -0.008,-0.0262 -7e-5,-0.0144 0.005,-0.0282 0.0122,-0.0404 0.0141,-0.0186 0.008,-0.0115 0.0543,-0.033 0.002,-7.5e-4 0.003,0.002 0.003,0.004 0.003,0.005 0.003,0.0107 0.003,0.0159 -1.6e-4,0.0109 -8e-4,0.0219 -0.002,0.0327 -0.009,0.0261 -0.0414,0.035 -0.0667,0.0421 -0.009,0.002 -0.0137,0.003 -0.0225,5.9e-4 -0.006,-6e-4 -0.0111,-0.002 -0.0147,-0.008 -0.004,-0.006 -0.002,-0.0134 7.7e-4,-0.0198 -0.002,8.8e-4 0.002,-0.003 0.002,-0.002 3.6e-4,4.7e-4 0.003,0.007 0.003,0.007 0.0391,-0.0189 0.0629,-0.0412 0.0472,-0.0266 -0.0178,0.0128 -0.0356,0.0316 -0.0577,0.0328 0.0164,-0.009 0.0329,-0.0185 0.0493,-0.0277 -1.3e-4,7.6e-4 -0.002,-2.1e-4 -0.002,5.1e-4 -1.1e-4,0.001 5.2e-4,0.002 7.8e-4,0.003 0,0 -0.0502,0.0281 -0.0502,0.0281 l 0,0 c -0.0125,-0.0253 0.0154,-0.0216 0.0485,-0.0393 0.0173,-0.01 -0.0696,0.0409 -0.0426,0.0242 0.008,-0.005 0.0524,-0.0478 0.0572,-0.025 4.5e-4,0.002 -9.6e-4,0.002 -0.002,0.003 -0.004,0.003 -0.006,0.009 -0.004,0.0133 0.003,0.004 0.008,0.003 0.0121,0.004 0.007,0.001 0.0138,-5.8e-4 0.0205,-0.003 0.003,-9.2e-4 0.0112,-0.005 0.009,-0.003 -0.0152,0.009 -0.0307,0.0181 -0.0461,0.0272 0.002,-0.001 0.003,-0.001 0.005,-0.003 6.9e-4,-8.3e-4 0.001,-0.002 0.002,-0.003 0.003,-0.01 0.003,-0.0209 0.004,-0.0312 -0.003,-0.0287 -0.0131,-0.006 0.0452,-0.0391 0.001,-7.1e-4 -0.002,0.002 -0.003,0.003 -0.009,0.0103 -0.0135,0.0231 -0.0138,0.0367 7.1e-4,0.008 0.002,0.0165 0.007,0.0238 0.004,0.007 0.008,0.009 0.016,0.008 0.003,-3.5e-4 0.005,-5.2e-4 0.008,-0.001 0.001,-3.6e-4 0.004,-0.002 0.003,-0.001 -0.0817,0.0485 -0.0576,0.0342 -0.0406,0.0235 0.007,-0.007 0.009,-0.0151 0.0105,-0.0243 0.002,-0.007 0.001,-0.0136 0.005,-0.0195 0.002,-0.008 0.007,-0.0148 0.0116,-0.0221 0.002,-0.003 0.005,-0.008 0.009,-0.0103 5.7e-4,-3.4e-4 0.001,-1.1e-4 0.002,-1.7e-4 2.7e-4,4.5e-4 3.6e-4,0.002 8.2e-4,0.001 0.0158,-0.009 0.031,-0.0182 0.0465,-0.0273 -0.0134,0.009 -0.0263,0.0196 -0.0369,0.0322 -9.1e-4,8.6e-4 -0.002,0.002 -0.003,0.003 -8.5e-4,-8.2e-4 -0.002,-0.003 -0.003,-0.002 -0.0166,0.009 -0.0322,0.0193 -0.0483,0.0289 6.2e-4,-5.6e-4 0.001,-9.9e-4 0.002,-0.002 0.001,-0.002 0.002,-0.005 0.003,-0.007 0.007,-0.0101 0.0147,-0.0195 0.0235,-0.0276 0.0222,-0.0164 0.008,-0.006 0.0603,-0.0362 0.007,-0.004 0.0148,-0.006 0.0227,-0.005 0.002,4.6e-4 0.003,6.3e-4 0.005,0.001 0.009,0.004 0.007,0.0116 1.7e-4,0.0161 -0.0113,0.0101 -0.0244,0.0179 -0.0365,0.0268 -0.006,0.004 -0.0125,0.009 -0.0187,0.0129 -0.003,0.002 -0.005,0.004 -0.008,0.006 -0.002,0.001 -0.003,0.003 -0.005,0.004 -0.0182,0.009 -0.0365,0.0184 -0.0554,0.026 -0.001,4.2e-4 -6.6e-4,-0.002 -9.8e-4,-0.003 0.0152,-0.0263 0.0459,-0.0407 0.0734,-0.0505 0.0161,-0.003 0.0324,-6e-4 0.0484,0.002 0.007,0.001 0.0371,0.005 0.0197,0.0174 -0.004,0.002 -0.009,0.005 -0.0128,0.008 -0.006,0.004 -0.0109,0.009 -0.0176,0.0108 0.009,0.004 0.0209,0.001 0.0308,2.2e-4 0.0126,-0.003 0.0244,-0.008 0.0358,-0.0141 0.0203,-0.0111 0.0135,-0.007 -0.0323,0.0192 -0.003,0.002 0.006,-0.003 0.009,-0.005 0.0109,-0.007 0.021,-0.015 0.0299,-0.0244 0.014,-0.0146 0.0286,-0.0306 0.034,-0.0507 -0.005,-2.7e-4 -0.003,-5.4e-4 -0.009,0.002 -0.003,0.001 -0.0108,0.005 -0.008,0.004 0.0123,-0.008 0.0249,-0.0148 0.0375,-0.0221 0.004,-0.002 -0.007,0.004 -0.011,0.007 -0.004,0.003 -0.008,0.006 -0.0115,0.009 -0.0261,0.0252 -0.0495,0.0532 -0.0673,0.0851 -0.005,0.009 -0.009,0.0153 -0.0127,0.0248 -0.001,0.003 -0.002,0.006 -0.003,0.008 -2.6e-4,0.001 -1.9e-4,0.003 -7.8e-4,0.004 -1.4e-4,3.2e-4 -5.9e-4,-3.7e-4 -8.8e-4,-5.6e-4 -0.0158,0.009 -0.0316,0.0187 -0.0474,0.028 0.0102,-0.008 0.0171,-0.0204 0.0264,-0.0297 0.005,-0.005 0.01,-0.011 0.0147,-0.0169 0.001,-0.002 0.003,-0.003 0.004,-0.005 0.001,-0.002 0.002,-0.004 0.004,-0.005 0.0173,-0.0111 0.0352,-0.021 0.0529,-0.0315 0.014,-0.005 0.0288,-0.004 0.0434,-0.005 0.0191,-0.001 0.0384,-0.004 0.0575,-8.9e-4 0.003,0.002 0.008,0.003 0.007,0.008 -7e-5,0.001 -0.001,0.003 -0.002,0.004 -0.0176,0.0111 -0.0361,0.0209 -0.0539,0.0318 -0.006,0.004 0.14882,-0.0868 -0.0198,0.0113 -0.0327,0.0186 -0.0661,0.0361 -0.10125,0.0496 -0.0141,0.005 -0.051,0.0217 -0.065,0.0101 -0.001,-0.001 -0.002,-0.003 -0.003,-0.004 -0.001,-0.006 -0.004,-0.016 -0.009,-0.0198 -3.7e-4,-3e-4 1.9e-4,9.3e-4 2.9e-4,0.001 0.0804,-0.051 0.0477,-0.0457 0.046,-0.023 -4.5e-4,0.006 2.2e-4,0.0118 -1.4e-4,0.0177 0,0.0129 -3.3e-4,0.0259 4.8e-4,0.0388 0,0 -0.0517,0.0263 -0.0517,0.0263 z"
       inkscape:connector-curvature="0"
       transform="translate(0,308.2677)" />
    <path
       style="fill:#ffffff"
       id="path3038"
       d="m 505.73343,222.05337 c 0.0237,-0.0226 0.046,-0.0466 0.0684,-0.0704 0.0151,-0.0184 0.0317,-0.0355 0.0493,-0.0514 0.0204,-0.0198 0.0446,-0.035 0.0676,-0.0515 0.0224,-0.0127 0.0423,-0.0285 0.0623,-0.0446 0.0197,-0.0163 0.0395,-0.0325 0.0608,-0.0467 0.36574,-0.21012 0.0481,-0.0275 0.0187,-0.0111 -0.003,0.001 0.005,-0.004 0.007,-0.006 0.008,-0.007 0.0152,-0.0153 0.0223,-0.0234 0.0141,-0.0191 0.0337,-0.0326 0.0513,-0.0481 0.0166,-0.0156 0.0334,-0.031 0.0514,-0.045 0.0181,-0.0139 0.0333,-0.0308 0.0506,-0.0455 0.0526,-0.0458 0.12006,-0.0744 0.1788,-0.10832 0.0427,-0.0246 -0.0854,0.0493 -0.12832,0.0735 -0.003,0.002 0.007,-0.004 0.0101,-0.007 0.0193,-0.0123 0.0363,-0.0278 0.0533,-0.043 0.0723,-0.0594 0.15824,-0.0994 0.24091,-0.14251 0.0454,-0.0272 0.0941,-0.0483 0.14248,-0.0695 0.0387,-0.0179 0.0791,-0.0315 0.11895,-0.0463 -0.009,0.007 0.0365,-0.0193 0.0275,-0.0142 -0.1307,0.0744 -0.16603,0.10187 -0.11646,0.0643 0,0 0.15052,-0.0609 0.15052,-0.0609 l 0,0 c -0.0534,0.0501 -0.12168,0.0825 -0.189,0.11031 -0.0393,0.0139 -0.0785,0.0282 -0.11634,0.0457 -0.0481,0.0219 -0.0964,0.0433 -0.14186,0.0703 -0.0509,0.0266 -0.15029,0.0839 0.0742,-0.0458 0.005,-0.003 -0.0139,0.008 -0.0291,0.0187 -0.004,0.003 -0.008,0.006 -0.0112,0.009 -0.0172,0.0155 -0.0338,0.0313 -0.0523,0.0454 -0.0526,0.0325 -0.10754,0.0611 -0.15995,0.094 -0.0416,0.0261 0.0852,-0.0488 0.12757,-0.0738 0.0132,-0.008 -0.0435,0.0229 -0.0291,0.0187 -0.0255,0.0238 0.008,-0.007 -0.0186,0.0154 -0.0113,0.009 -0.0189,0.0226 -0.0315,0.0307 -0.0174,0.0149 -0.0364,0.0278 -0.0525,0.0443 -0.0167,0.0163 -0.0357,0.0292 -0.0514,0.0461 -0.005,0.006 -0.0228,0.0287 -0.0278,0.0319 -0.0843,0.0527 -0.28901,0.17046 -0.0183,0.0136 -0.0225,0.012 -0.0427,0.0283 -0.0619,0.0451 -0.0207,0.0152 -0.0383,0.0341 -0.0617,0.0457 -0.0253,0.015 0.001,-0.002 -0.0229,0.0161 -0.015,0.011 -0.0325,0.0187 -0.0451,0.0329 -0.0178,0.0158 -0.0358,0.0314 -0.0507,0.05 -0.0212,0.0246 -0.0451,0.0467 -0.0668,0.0707 0,0 -0.15099,0.0625 -0.15099,0.0625 z"
       inkscape:connector-curvature="0"
       transform="translate(0,308.2677)" />
    <path
       style="fill:#000000"
       d=""
       id="path3042"
       inkscape:connector-curvature="0"
       transform="translate(0,308.2677)" />
    <path
       style="fill:#000000"
       d=""
       id="path3044"
       inkscape:connector-curvature="0"
       transform="translate(0,308.2677)" />
    <path
       style="fill:#000000"
       d=""
       id="path3046"
       inkscape:connector-curvature="0"
       transform="translate(0,308.2677)" />
    <path
       style="fill:#000000"
       d=""
       id="path3048"
       inkscape:connector-curvature="0"
       transform="translate(0,308.2677)" />
    <rect
       style="fill:#000000"
       id="rect3066"
       width="0.90234375"
       height="0.95703125"
       x="506.00391"
       y="216.52808"
       transform="translate(0,308.2677)" />
    <path
       style="fill:#ffffff;stroke:#ffffff;stroke-width:1px;stroke-linecap:butt;stroke-linejoin:miter;stroke-opacity:1"
       d="m 504.70631,532.13048 2.49364,-2.59911"
       id="path3068"
       inkscape:connector-curvature="0" />
    <rect
       style="fill:#ffffff;stroke:#ffffff;stroke-width:1.03844512"
       id="rect3882"
       width="2.9194825"
       height="0.12985651"
       x="7.7722955"
       y="728.3446"
       transform="matrix(0.70152625,-0.71264361,0.68625552,0.72736054,0,0)" />
    <rect
       style="fill:#000000;fill-opacity:1;stroke:#000000;stroke-width:1.25640368000000002;stroke-opacity:0"
       id="rect3914"
       width="4.7332177"
       height="21.948776"
       x="606.57758"
       y="191.94574"
       transform="matrix(0.83955172,0.54327977,-0.24426175,0.96970934,0,0)" />
    <rect
       style="fill:#ffffff;fill-opacity:1;stroke:#000000;stroke-opacity:0"
       id="rect3916"
       width="13.435029"
       height="3.2703688"
       x="454.84644"
       y="536.92554" />
    <rect
       style="fill:#ffffff;fill-opacity:1;stroke:#000000;stroke-width:1.18036615999999994;stroke-opacity:0"
       id="rect3964"
       width="2.4720631"
       height="11.712393"
       x="561.50439"
       y="326.8905"
       transform="matrix(0.93188064,0.36276505,-0.17611085,0.98437034,0,0)" />
  </g>
</svg>
