<?xml version="1.0" encoding="UTF-8" standalone="no"?>
<!-- Created with Inkscape (http://www.inkscape.org/) -->

<svg
   xmlns:dc="http://purl.org/dc/elements/1.1/"
   xmlns:cc="http://creativecommons.org/ns#"
   xmlns:rdf="http://www.w3.org/1999/02/22-rdf-syntax-ns#"
   xmlns:svg="http://www.w3.org/2000/svg"
   xmlns="http://www.w3.org/2000/svg"
   xmlns:sodipodi="http://sodipodi.sourceforge.net/DTD/sodipodi-0.dtd"
   xmlns:inkscape="http://www.inkscape.org/namespaces/inkscape"
   width="744.09448819"
   height="1052.3622047"
   id="svg2"
   version="1.1"
   inkscape:version="0.48.2 r9819"
   sodipodi:docname="New document 1">
  <defs
     id="defs4" />
  <sodipodi:namedview
     id="base"
     pagecolor="#ffffff"
     bordercolor="#666666"
     borderopacity="1.0"
     inkscape:pageopacity="0.0"
     inkscape:pageshadow="2"
     inkscape:zoom="0.49497475"
     inkscape:cx="190.77166"
     inkscape:cy="520"
     inkscape:document-units="px"
     inkscape:current-layer="layer1"
     showgrid="false"
     inkscape:window-width="1366"
     inkscape:window-height="720"
     inkscape:window-x="0"
     inkscape:window-y="0"
     inkscape:window-maximized="1" />
  <metadata
     id="metadata7">
    <rdf:RDF>
      <cc:Work
         rdf:about="">
        <dc:format>image/svg+xml</dc:format>
        <dc:type
           rdf:resource="http://purl.org/dc/dcmitype/StillImage" />
        <dc:title></dc:title>
      </cc:Work>
    </rdf:RDF>
  </metadata>
  <g
     inkscape:label="Layer 1"
     inkscape:groupmode="layer"
     id="layer1">
    <text
       xml:space="preserve"
       style="font-size:40px;font-style:normal;font-weight:normal;line-height:125%;letter-spacing:0px;word-spacing:0px;fill:#000000;fill-opacity:1;stroke:none;font-family:Sans"
       x="185.12994"
       y="312.4707"
       id="text2985"
       sodipodi:linespacing="125%"><tspan
         sodipodi:role="line"
         id="tspan2987"
         x="185.12994"
         y="312.4707">J</tspan></text>
    <text
       xml:space="preserve"
       style="font-size:40px;font-style:normal;font-weight:normal;line-height:125%;letter-spacing:0px;word-spacing:0px;fill:#000000;fill-opacity:1;stroke:none;font-family:Sans"
       x="205.71428"
       y="315.1265"
       id="text2989"
       sodipodi:linespacing="125%"><tspan
         sodipodi:role="line"
         id="tspan2991"
         x="205.71428"
         y="315.1265">a</tspan><tspan
         sodipodi:role="line"
         x="205.71428"
         y="365.1265"
         id="tspan3027">p</tspan><tspan
         sodipodi:role="line"
         x="205.71428"
         y="415.1265"
         id="tspan2993">a</tspan><tspan
         sodipodi:role="line"
         x="205.71428"
         y="465.1265"
         id="tspan2995">n</tspan><tspan
         sodipodi:role="line"
         x="205.71428"
         y="515.12653"
         id="tspan2997">e</tspan><tspan
         sodipodi:role="line"
         x="205.71428"
         y="565.12653"
         id="tspan2999">a</tspan><tspan
         sodipodi:role="line"
         x="205.71428"
         y="615.12653"
         id="tspan3001">s</tspan><tspan
         sodipodi:role="line"
         x="205.71428"
         y="665.12653"
         id="tspan3003">e</tspan></text>
    <text
       xml:space="preserve"
       style="font-size:40px;font-style:normal;font-weight:normal;line-height:125%;letter-spacing:0px;word-spacing:0px;fill:#000000;fill-opacity:1;stroke:none;font-family:Sans"
       x="234.35172"
       y="314.81323"
       id="text3013"
       sodipodi:linespacing="125%"><tspan
         sodipodi:role="line"
         id="tspan3015"
         x="234.35172"
         y="314.81323">M</tspan><tspan
         sodipodi:role="line"
         x="234.35172"
         y="364.81323"
         id="tspan3025">o</tspan><tspan
         sodipodi:role="line"
         x="234.35172"
         y="414.81323"
         id="tspan3017">n</tspan><tspan
         sodipodi:role="line"
         x="234.35172"
         y="464.81323"
         id="tspan3019">k</tspan><tspan
         sodipodi:role="line"
         x="234.35172"
         y="514.81323"
         id="tspan3021">e</tspan><tspan
         sodipodi:role="line"
         x="234.35172"
         y="564.81323"
         id="tspan3023">y</tspan></text>
    <path
       style="fill:#808000"
       id="path3029"
       d="m 296.58459,268.84031 c -0.18286,4.20973 -0.24472,8.42901 -0.10113,12.64038 0.36111,4.52133 1.32662,8.9692 3.06367,13.15898 1.51664,2.72373 4.0278,4.74607 6.38056,6.7357 3.90758,2.73058 8.0597,5.16584 12.42212,7.09362 4.4519,2.34575 9.11781,4.29453 13.89246,5.87879 0.58914,0.16724 1.17829,0.33449 1.76743,0.50173 0,0 -12.14902,8.2765 -12.14902,8.2765 l 0,0 c -0.57803,-0.19751 -1.15607,-0.39502 -1.7341,-0.59252 -4.72695,-1.79327 -9.39554,-3.7528 -13.91932,-6.0151 -4.42436,-2.09342 -8.67388,-4.58093 -12.69045,-7.37812 -2.61068,-2.12647 -5.35257,-4.22102 -6.83499,-7.33353 -1.60428,-4.41419 -2.65891,-8.99485 -3.09606,-13.67884 -0.24338,-4.1606 -0.12527,-8.32756 -0.34279,-12.4897 0,0 13.34162,-6.79789 13.34162,-6.79789 z"
       inkscape:connector-curvature="0" />
    <path
       style="fill:#808000"
       id="path3031"
       d="m 300.73635,270.14408 c 12.56157,-2.50332 24.92485,-5.82096 37.30375,-9.09152 16.52488,-4.40952 32.9074,-9.56763 49.73998,-12.72943 2.80696,-0.52726 5.63593,-0.92979 8.4539,-1.39468 10.26624,-1.77188 20.68347,-1.66726 30.75162,1.16528 5.43784,1.52987 7.84429,2.81304 12.94123,5.07841 10.56321,5.7056 20.13156,12.96928 29.51329,20.40256 5.69029,4.73909 11.41033,9.56219 15.33172,15.91483 2.77578,5.52483 2.67249,10.24121 1.76303,16.21674 -2.87803,11.17796 -7.67695,21.75174 -12.20257,32.3352 -3.36373,7.92202 -6.94774,15.76714 -9.64898,23.95138 -1.56475,4.74089 -1.61068,5.3986 -2.73726,10.18971 -1.27417,6.17292 -2.06682,12.63874 0.90234,18.49546 1.87242,3.69337 3.65573,5.10141 6.50246,8.08489 1.5788,1.2348 3.10739,2.53663 4.73639,3.70439 3.74262,2.68294 7.67879,4.96406 11.63011,7.31822 6.53134,3.89131 13.15814,7.46594 19.92404,10.93017 5.3681,2.70775 10.93289,4.99572 16.51834,7.20881 2.907,1.15183 5.61989,2.15048 8.69687,2.66133 0,0 -12.02809,8.32991 -12.02809,8.32991 l 0,0 c -2.88093,-0.8552 -5.51282,-2.02766 -8.25065,-3.27422 -5.39662,-2.45714 -10.81547,-4.87374 -16.07346,-7.62163 -6.74442,-3.54236 -13.43208,-7.13172 -20.02099,-10.9577 -3.915,-2.27331 -8.21519,-4.71428 -11.93605,-7.32032 -1.70653,-1.19523 -3.30816,-2.53366 -4.96224,-3.80049 -3.04253,-3.14019 -4.90473,-4.59187 -6.94564,-8.48884 -3.18568,-6.08283 -2.5774,-12.79316 -1.19152,-19.26002 1.1244,-4.81728 1.19862,-5.64757 2.80355,-10.4018 2.78548,-8.25131 6.52267,-16.13252 9.90343,-24.14432 4.30193,-10.36792 8.83607,-20.7133 11.54979,-31.6401 0.78875,-5.4178 0.90682,-10.18086 -1.48578,-15.24693 -3.60649,-6.29993 -9.09435,-11.10427 -14.54162,-15.80263 -9.13363,-7.49869 -18.52547,-14.73908 -28.99366,-20.3144 -5.09868,-2.27206 -7.20911,-3.43872 -12.66832,-4.93242 -9.90578,-2.71032 -20.14431,-2.62799 -30.21709,-0.93585 -2.77829,0.45754 -5.56654,0.85823 -8.33486,1.37261 -16.6847,3.10021 -32.97007,8.02965 -49.31724,12.50113 -12.44212,3.43579 -24.87103,7.15707 -37.47708,9.96564 -0.6746,0.1503 -1.36445,0.22128 -2.04668,0.33192 0,0 12.11394,-8.80129 12.11394,-8.80129 z"
       inkscape:connector-curvature="0" />
    <path
       style="fill:#808000"
       id="path3033"
       d="m 404.45892,347.64449 c -2.26757,-0.10185 -4.53797,-0.10133 -6.80727,-0.1036 0,0 11.85283,-8.61159 11.85283,-8.61159 l 0,0 c 2.3644,-0.002 4.72961,-0.006 7.09246,-0.1036 0,0 -12.13802,8.81879 -12.13802,8.81879 z"
       inkscape:connector-curvature="0" />
    <path
       style="fill:#808000"
       id="path3035"
       d="m 355.97159,351.6851 c -3.88813,-0.15752 -7.78206,-0.13941 -11.67245,-0.0943 -1.81971,-0.0943 -3.68626,0.28547 -5.48439,-0.13004 -0.20935,-0.0484 -2.04551,-0.66336 -2.28475,-0.74283 -2.09371,-0.89286 -3.93254,-2.26469 -5.94538,-3.30942 -1.92378,-0.92345 -3.85655,-0.29871 -5.78207,0.24686 0,0 11.82005,-9.03405 11.82005,-9.03405 l 0,0 c 2.2246,-0.47489 4.42643,-0.54888 6.45893,0.64529 1.86375,1.10969 3.67221,2.36973 5.74083,3.07674 2.40968,0.70217 4.86059,0.61674 7.35519,0.61728 3.97704,0.0476 7.95703,0.0558 11.93207,-0.0943 0,0 -12.13803,8.81879 -12.13803,8.81879 z"
       inkscape:connector-curvature="0" />
    <path
       style="fill:#808000"
       id="path3037"
       d="m 333.94697,372.00346 c -0.3547,6.32901 -0.33644,12.6743 -0.30003,19.01126 -0.0641,4.59627 0.35542,9.19585 -0.007,13.7838 -0.11016,1.04216 -0.42464,2.01076 -0.81741,2.97177 0,0 -13.68706,6.03754 -13.68706,6.03754 l 0,0 c 0.67536,-0.70791 0.98603,-1.48631 1.22797,-2.44504 0.75239,-4.5806 0.41013,-9.24623 0.56836,-13.86944 0.0356,-6.23485 0.0625,-12.47911 -0.30003,-18.70552 0,0 13.31509,-6.78437 13.31509,-6.78437 z"
       inkscape:connector-curvature="0" />
    <path
       style="fill:#808000"
       id="path3039"
       d="m 335.03309,416.21346 c 1.32208,6.56799 4.888,12.4507 7.73018,18.43861 1.16079,2.44558 2.28267,4.90943 3.42401,7.36414 4.97752,11.20149 10.05825,22.3713 14.67081,33.73085 1.88711,4.64749 3.63426,9.35062 5.46792,14.01946 2.09161,4.68307 3.64164,13.08268 8.23713,16.10766 2.90204,1.91026 4.36467,1.41709 7.80775,1.51905 1.96218,-0.34282 3.95449,-0.5438 5.88653,-1.02847 4.58428,-1.15 10.88415,-3.60756 15.17979,-5.27475 8.82509,-3.42512 17.60519,-6.96603 26.43462,-10.38169 13.30142,-5.17672 26.92601,-9.36085 40.97174,-11.90323 7.97792,-1.29692 16.07863,-1.61498 24.14494,-1.33148 7.74885,0.71936 15.36889,2.30551 23.02599,3.62935 0.64861,0.10547 3.83158,0.70099 4.70381,0.58062 0.52571,-0.0725 1.92652,-0.88944 1.45622,-0.64357 -12.25287,6.40568 -12.77688,9.93826 -10.7092,3.51904 0,0 13.04667,-6.31638 13.04667,-6.31638 l 0,0 c -0.10616,0.95455 0.41805,2.24725 -0.31848,2.86365 -10.40023,8.70392 -10.81858,10.1756 -19.9477,8.21914 -7.53271,-1.51739 -15.08472,-3.02499 -22.76872,-3.53451 -7.92174,-0.1383 -15.86598,0.12967 -23.70616,1.36065 -13.7177,2.39679 -27.01688,6.47582 -40.00668,11.48521 -8.87839,3.42075 -17.68894,7.00527 -26.55249,10.4617 -4.611,1.7981 -10.93319,4.28679 -15.84311,5.45291 -2.08774,0.49585 -4.24022,0.66232 -6.36033,0.99348 -3.96042,-0.34687 -5.40405,0.13846 -8.60716,-2.24643 -4.72271,-3.5163 -5.78301,-11.88245 -7.81153,-17.01529 -1.01465,-2.88283 -4.0644,-11.6004 -5.05881,-14.19275 -4.38008,-11.41857 -9.42141,-22.58785 -14.78364,-33.57399 -1.2285,-2.39314 -2.42522,-4.80286 -3.68551,-7.17942 -3.17068,-5.97904 -7.04171,-11.67039 -9.25395,-18.10743 0,0 13.22536,-7.01613 13.22536,-7.01613 z"
       inkscape:connector-curvature="0" />
    <path
       style="fill:#808000"
       id="path3041"
       d="m 280.19925,270.2752 c 2.64002,-15.75949 7.91427,-30.95593 13.06357,-46.03325 6.01239,-15.75164 13.27637,-30.96318 21.28654,-45.78663 4.85839,-8.99082 9.28276,-16.79796 15.06356,-25.17746 2.30239,-3.3374 4.86159,-6.49014 7.29239,-9.73522 2.5119,-2.55613 4.82408,-5.32521 7.53571,-7.66841 7.43427,-6.42415 20.1004,-12.66666 28.06755,-15.65731 3.21937,-1.20847 6.77851,-1.28056 10.21268,-1.45722 9.18728,-0.47261 13.57849,0.7966 22.67574,2.32523 12.6366,3.00436 24.83864,7.52391 36.61633,12.96696 3.87991,1.79311 7.79343,3.54836 11.48336,5.70554 9.55163,5.584 13.2433,9.24639 21.71445,16.29088 12.50632,11.45794 23.31324,24.64428 30.9801,39.82787 4.17575,8.26975 4.74099,10.83863 7.67052,19.39381 2.98884,10.35792 4.17908,21.17337 2.40603,31.86248 -0.85038,5.12668 -1.74596,7.34346 -3.30001,12.19188 -3.15408,8.33549 -7.77796,15.98922 -12.8943,23.24796 -0.4588,0.62128 -0.94419,1.22379 -1.37639,1.86386 -0.6014,0.89064 -0.90662,1.48587 -0.66309,1.61156 0.26309,0.13579 5.33114,0.46903 5.41647,0.47512 6.71026,0.26803 13.42996,0.14582 20.14232,0.0186 3.61024,0.21496 7.60688,-0.88041 11.04036,0.67453 0.78923,0.35743 1.49468,0.87661 2.24203,1.31491 4.68478,3.62582 8.53362,8.41502 10.73107,13.95434 0.53627,1.35182 0.89912,2.76615 1.34868,4.14923 1.47396,6.02357 2.37959,12.20309 2.28497,18.41465 -0.0448,2.93891 -0.30259,5.2985 -0.55966,8.19732 -0.90189,7.9047 -1.56241,15.82081 -2.69039,23.6981 -2.16574,14.31285 -5.78614,28.33624 -9.45832,42.31966 -2.87007,10.39696 -5.43256,20.87068 -7.00646,31.54626 -0.72303,5.50104 0.43002,7.7935 4.23959,11.53541 3.94223,3.53681 7.28005,7.6309 9.82423,12.27127 1.85916,4.11468 2.19937,8.60878 2.39064,13.05533 0.18243,4.69266 -1.29921,8.90966 -3.745,12.83573 -6.17275,7.30285 -16.17673,9.92508 -25.04809,12.50289 -3.84214,1.07559 -1.9754,0.51771 -5.60286,1.66475 0,0 11.45175,-8.85023 11.45175,-8.85023 l 0,0 c 3.58491,-1.05494 1.74276,-0.52389 5.5274,-1.58986 1.93904,-0.58189 3.99645,-1.18676 5.92494,-1.81299 0.81174,-0.2636 3.12915,-1.30439 2.42468,-0.82258 -3.44979,2.3594 -7.17418,4.29063 -10.7231,6.49811 -0.42986,0.26737 0.93911,-0.39425 1.36064,-0.67455 0.44322,-0.29472 0.80926,-0.6916 1.21389,-1.0374 2.75373,-3.71142 4.30119,-7.30454 4.19986,-12.02102 -0.13172,-4.23734 -0.33472,-8.54398 -2.03136,-12.49755 -2.37599,-4.58966 -5.64482,-8.54137 -9.58796,-11.89076 -4.19334,-4.07617 -5.62097,-6.89206 -4.64238,-12.89522 1.9775,-10.8338 4.85735,-21.46775 7.79558,-32.07447 3.71539,-13.82935 7.34294,-27.72649 9.13599,-41.96249 0.86589,-7.82629 1.06296,-15.70284 2.31945,-23.48434 0.37285,-2.94976 0.71187,-5.12628 0.81212,-8.13531 0.20206,-6.06432 -0.70198,-12.11949 -2.16386,-17.99049 -0.44345,-1.31552 -0.80551,-2.66136 -1.33037,-3.94657 -2.14391,-5.24984 -5.853,-9.84766 -10.56143,-12.98762 -0.71019,-0.3275 -1.38941,-0.73289 -2.13057,-0.98252 -3.38603,-1.14041 -7.1901,-0.129 -10.66237,-0.47692 -6.74465,-0.007 -13.49112,0.0927 -20.23404,-0.099 -2.07664,-0.15551 -5.31133,0.0729 -6.79861,-1.84451 -1.3448,-1.73375 1.16613,-3.68697 1.98155,-4.8202 5.4806,-7.13111 10.27501,-14.82251 13.73178,-23.14858 1.73255,-4.89483 2.61845,-6.84964 3.63367,-12.05113 2.06159,-10.56262 1.24669,-21.32373 -1.49727,-31.68452 -2.65361,-8.40469 -3.24472,-11.287 -7.16991,-19.407 -7.33638,-15.17664 -17.98159,-28.31912 -30.362,-39.67445 -9.39527,-7.75233 -11.1371,-9.85082 -21.73497,-15.95429 -3.67101,-2.11419 -7.51113,-3.92759 -11.35772,-5.70238 -11.77377,-5.43233 -24.03417,-9.79137 -36.72072,-12.53346 -9.19069,-1.33725 -13.52516,-2.51382 -22.75663,-1.78787 -3.41314,0.2684 -6.71599,2.09239 -10.1219,1.744 -1.03742,-0.10612 2.68391,-3.03967 1.73753,-2.60163 -6.43134,2.97681 -11.25775,8.50318 -16.20885,13.28285 -2.56532,3.27142 -5.2621,6.44391 -7.69598,9.81427 -5.94728,8.23557 -10.92665,16.49526 -15.84106,25.40038 -7.99691,14.49075 -15.03658,29.49998 -20.40208,45.17512 -4.59357,14.43628 -9.62547,29.07459 -10.53186,44.31505 0,0 -13.36815,6.81141 -13.36815,6.81141 z"
       inkscape:connector-curvature="0" />
    <path
       style="fill:#808000"
       id="path3043"
       d="m 387.17316,437.19938 c -1.05019,-2.31586 -2.62229,-4.30142 -3.64138,-6.6442 -1.08888,-3.06964 -1.11082,-6.34416 -1.16197,-9.56107 -0.19715,-2.73872 0.20253,-5.42405 0.87369,-8.06733 0,0 13.41743,-6.37832 13.41743,-6.37832 l 0,0 c -0.78696,2.53472 -1.50145,5.04958 -1.21811,7.74727 0.0893,3.01779 0.0904,6.09771 1.02319,9.00148 0.97959,2.37554 2.56545,4.35198 3.79649,6.59274 0,0 -13.08934,7.30943 -13.08934,7.30943 z"
       inkscape:connector-curvature="0" />
    <path
       style="fill:#808000"
       id="path3045"
       d="m 383.46007,458.0237 c 2.72761,0.2964 5.38644,-0.48015 8.10363,-0.45374 0.42559,0.14668 0.87699,0.23312 1.27677,0.44004 1.41726,0.73355 2.50681,2.11214 3.67368,3.16049 1.56201,1.40335 1.33599,1.16736 3.09269,2.44325 6.56103,3.7172 13.78957,0.82626 20.27817,-1.56253 5.80143,-2.11883 11.26504,-5.03502 17.34369,-6.2902 3.96643,-0.63864 8.01609,-0.37017 11.91149,-1.4857 0.78223,-0.224 1.5293,-0.55634 2.29395,-0.83451 0.69406,-0.33132 1.39696,-0.64474 2.08219,-0.99397 0.59254,-0.30198 2.32802,-1.28715 1.74961,-0.95891 -11.69152,6.63477 -14.44168,8.83392 -9.94268,5.37699 0,0 13.71066,-5.52406 13.71066,-5.52406 l 0,0 c -5.53853,4.8531 -12.30195,8.23966 -19.0931,11.01563 -4.87436,1.40473 -9.37208,1.44703 -14.31865,2.24284 -5.81118,1.4651 -11.18092,4.13819 -16.82795,6.10521 -7.0112,2.4195 -14.65677,4.89523 -21.53768,0.74959 -2.0516,-1.48179 -1.43327,-0.96865 -3.25568,-2.52811 -1.3365,-1.14366 -2.54232,-2.55213 -4.42181,-2.60506 -2.75253,0.16671 -5.48892,0.59992 -8.257,0.52154 0,0 12.13802,-8.81879 12.13802,-8.81879 z"
       inkscape:connector-curvature="0" />
  </g>
</svg>
